<?xml version="1.0" encoding="UTF-8" standalone="no"?>
<svg
   version="1.1"
   width="6.9570923in"
   height="6.677in"
   viewBox="0 0 500.91064 480.74401"
   id="svg9"
   sodipodi:docname="fitzland-net-logo.svg"
   xml:space="preserve"
   inkscape:version="1.2.2 (b0a8486541, 2022-12-01)"
   xmlns:inkscape="http://www.inkscape.org/namespaces/inkscape"
   xmlns:sodipodi="http://sodipodi.sourceforge.net/DTD/sodipodi-0.dtd"
   xmlns="http://www.w3.org/2000/svg"
   xmlns:svg="http://www.w3.org/2000/svg"><defs
     id="defs13" /><sodipodi:namedview
     id="namedview11"
     pagecolor="#ffffff"
     bordercolor="#666666"
     borderopacity="1.0"
     inkscape:showpageshadow="2"
     inkscape:pageopacity="0.0"
     inkscape:pagecheckerboard="0"
     inkscape:deskcolor="#d1d1d1"
     inkscape:document-units="in"
     showgrid="false"
     inkscape:zoom="0.57318504"
     inkscape:cx="207.61184"
     inkscape:cy="423.07454"
     inkscape:window-width="1920"
     inkscape:window-height="1050"
     inkscape:window-x="0"
     inkscape:window-y="30"
     inkscape:window-maximized="1"
     inkscape:current-layer="svg9" /><g
     id="Layer1000-3"
     transform="translate(-52.841373,-151.416)"
     inkscape:export-filename="fitzhugh-us-logo.png"
     inkscape:export-xdpi="96"
     inkscape:export-ydpi="96"><path
       d="M 273.24,628.776 C 207.216,620.064 135.576,652.68 67.32,593.136 55.152,571.896 55.152,554.04 55.152,536.256 v -20.52 C 51.768,410.688 49.104,306.504 69.984,201.816 l 23.904,-32.616 14.76,-6.408 c 95.904,-17.856 191.088,0 286.632,-11.376 47.736,2.664 86.832,-3.456 128.52,14.76 33.048,53.496 20.88,98.208 24.264,149.4 l 5.688,139.896 c -9.072,48.168 12.168,95.904 -23.832,143.352 l -8.784,15.552 -12.096,5.688 c -74.736,5.688 -149.832,5.688 -227.088,12.096 z"
       style="fill:#58536c;fill-rule:evenodd"
       id="path2-5" /><path
       d="m 177.696,602.208 -63,-3.384 -23.904,-14.832 -5.688,-12.096 C 76.032,530.568 81.72,488.808 78.696,446.76 c 0,-83.736 0,-155.448 15.192,-232.776 l 18.144,-26.928 c 2.664,0 2.664,0 2.664,0 134.64,-5.688 265.752,-20.88 397.368,5.688 11.736,30.312 5.688,53.856 9.072,78.12 v 17.784 c -3.384,101.304 23.544,200.16 -12.096,301.464 -53.856,8.712 -107.352,12.096 -158.544,12.096 h -92.088 -44.712 -21.24 l -8.712,3.024 z"
       style="fill:#9edbf4;fill-rule:evenodd"
       id="path4-6" /><path
       d="m 129.888,587.448 c 0,0 0,0 0,0 L 96.48,560.52 l 9.144,-12.168 26.928,23.544 h 15.12 c 0,12.096 0,15.552 -9.072,15.552 z"
       style="fill:#58536c;fill-rule:evenodd"
       id="path6-2" /><path
       d="m 476.424,583.992 c 0,0 0,0 0,0 l 5.688,-17.784 9.072,-14.832 17.856,-15.12 v 17.784 l -9.144,24.264 -17.784,5.688 z"
       style="fill:#58536c;fill-rule:evenodd"
       id="path8" /><path
       d="m 135.576,560.52 -8.712,-9.144 -3.456,-15.12 3.456,-20.52 V 414.144 l -3.456,-113.688 6.48,-80.784 c 89.496,-5.688 169.848,-5.688 256.248,-2.664 h 83.808 c 17.856,110.376 3.096,220.608 12.168,331.344 -113.76,20.88 -223.704,9.144 -337.464,14.832 z"
       style="fill:#58536c;fill-rule:evenodd"
       id="path10" /><path
       d="m 494.208,226.08 -21.168,-21.24 -17.856,-5.688 c 3.384,-6.408 3.384,-6.408 3.384,-6.408 l 44.784,12.096 2.664,23.904 h -6.12 z"
       style="fill:#58536c;fill-rule:evenodd"
       id="path12" /><path
       d="m 99.936,226.08 v -9.072 l 14.76,-20.88 17.856,-6.048 15.12,2.664 v 12.096 l -15.12,3.456 c -2.664,0 -2.664,0 -2.664,0 -15.192,5.688 -9.144,20.448 -21.24,17.784 z"
       style="fill:#58536c;fill-rule:evenodd"
       id="path14" /><path
       d="m 146.448,235.44 h 309.96 v 298.152 h -309.96 z"
       style="fill:#ffec00;fill-rule:evenodd"
       id="path16" /></g><g
     id="Layer1000-9"
     transform="translate(675.19372,-331.00667)"
     inkscape:export-filename="fitzland-net-logo.png"
     inkscape:export-xdpi="96"
     inkscape:export-ydpi="96"><path
       d="m 286.344,639.792 -20.592,-3.456 -141.84,-2.664 C 105.984,636.336 87.984,627.552 70.056,606.888 42.912,543.456 57.816,480.024 51.696,419.976 v -21.384 c 0,-72.144 -18,-140.976 24.048,-213.192 63.072,-33.696 123.48,-9.216 183.528,-24.48 h 45.072 l 33.552,3.024 108.216,3.456 c 30.168,0 57.312,-3.456 87.12,14.904 36.288,138.384 6.48,270.576 9.144,406.296 l -27.072,38.952 c -56.952,6.12 -114.336,6.12 -171.648,6.12 h -14.904 l -35.856,6.12 z"
       style="fill:#84756f;fill-rule:evenodd"
       id="path2-1" /><path
       d="m 289.8,618.408 h -12.24 c 6.12,-29.808 6.12,-56.592 6.12,-87.192 -3.024,-6.12 -3.024,-6.12 -3.024,-6.12 C 220.608,515.952 127.368,441 141.912,374.976 151.056,338.688 181.224,297 214.128,278.64 c 18.36,-6.12 33.624,-12.24 48.528,-12.24 3.096,-5.688 3.096,-5.688 3.096,-5.688 l 2.664,-84.528 33.264,2.664 v 78.768 c 51.12,5.76 119.952,48.168 129.096,108.216 15.336,45 3.096,84.384 -38.592,126.432 -27.144,14.904 -51.624,21.024 -75.672,21.024 l -3.096,72.216 -2.664,36.36 H 295.56 Z"
       style="fill:#9edbf4;fill-rule:evenodd"
       id="path4-2" /><path
       d="m 181.224,615.744 -72.216,-6.12 C 45.936,504.504 91.08,383.76 70.056,272.52 l 23.688,-69.192 17.928,-9.144 c 45.864,-6.12 91.008,-6.12 136.08,-3.096 l 8.784,32.904 -3.024,27.504 c -66.168,0 -141.84,84.096 -129.6,144.504 l 3.456,17.856 c 14.544,51.264 84.096,111.24 131.904,129.6 v 72.288 h -71.928 z"
       style="fill:#d6ead7;fill-rule:evenodd"
       id="path6-7" /><path
       d="m 328.752,609.624 2.664,-78.408 c 69.552,0 141.84,-87.48 126.936,-147.456 L 425.088,308.448 C 397.944,269.856 355.896,254.16 322.632,248.472 l -2.664,-54.288 c 65.736,-3.096 135.288,-15.336 201.816,6.12 2.304,5.688 2.304,5.688 2.304,5.688 15.624,39.384 3.384,75.312 6.48,111.672 l -6.48,114.552 v 18 23.688 c 3.384,42.048 6.48,81.432 -14.544,123.84 -24.12,14.904 -39.384,9.144 -60.768,11.88 h -23.688 -39.384 -50.832 z"
       style="fill:#d6ead7;fill-rule:evenodd"
       id="path8-0" /><path
       d="m 190.44,558.36 -14.904,-12.24 c 0,-5.688 -3.096,-14.904 5.688,-11.448 l -12.168,-9.576 3.384,-20.592 60.048,45.072 c 0,5.76 0,5.76 0,5.76 l -42.048,-14.904 5.76,17.928 z"
       style="fill:#84756f;fill-rule:evenodd"
       id="path10-9" /><path
       d="m 394.776,537.696 c 0,0 0,0 0,0 l 2.376,-11.952 9.576,-2.088 44.784,-44.784 c 11.664,6.84 4.464,16.416 0,25.632 l -30.744,28.728 -9.288,4.464 -11.592,2.376 z"
       style="fill:#84756f;fill-rule:evenodd"
       id="path12-3" /><path
       d="m 438.552,537.336 -2.448,-12.024 12.312,-5.256 c 2.16,-4.608 2.16,-4.608 2.16,-4.608 C 458.28,513 458.28,513 458.28,513 l -2.448,16.92 -12.312,7.416 z"
       style="fill:#84756f;fill-rule:evenodd"
       id="path14-6" /><path
       d="m 319.968,501.048 -18.288,-3.096 -3.096,-210.168 c 3.096,-6.48 3.096,-6.48 3.096,-6.48 6.048,-2.664 6.048,-2.664 6.048,-2.664 35.928,14.904 59.976,54.288 72.216,81.432 14.904,47.736 8.784,90.144 -32.832,135.216 l -21.456,9.216 z"
       style="fill:#84756f;fill-rule:evenodd"
       id="path16-0" /><path
       d="m 259.272,495.288 -45.144,-27.144 c -29.448,-60.336 -32.904,-120.312 21.384,-180.36 5.76,-3.024 5.76,-3.024 5.76,-3.024 l 36.288,-6.12 3.096,150.192 3.024,59.976 -17.928,9.144 z"
       style="fill:#84756f;fill-rule:evenodd"
       id="path18" /><path
       d="m 319.968,483.048 v -168.12 l 29.376,27.144 6.552,18 c 17.928,38.52 14.904,87.048 -27.144,119.952 z"
       style="fill:#d6ead7;fill-rule:evenodd"
       id="path20" /><path
       d="m 259.272,477.36 c 0,0 0,0 0,0 l -26.784,-18 -14.904,-33.624 c -12.24,-38.52 -9.216,-80.928 26.712,-119.952 l 14.976,-8.784 6.48,183.024 z"
       style="fill:#d6ead7;fill-rule:evenodd"
       id="path22" /><path
       d="m 452.232,353.592 -3.456,-23.76 -8.784,-14.904 -36.36,-39.312 c 0,-3.096 0,-3.096 0,-3.096 l 42.48,15.264 c 0,-3.024 0,-3.024 0,-3.024 l 17.928,-6.12 9.216,18.36 -3.096,17.928 -21.384,-24.408 c 3.456,17.928 18.72,33.264 18.72,51.552 l -9.144,11.52 z"
       style="fill:#84756f;fill-rule:evenodd"
       id="path24" /><path
       d="m 120.888,320.688 c 0,0 0,0 0,0 l 12.24,-39.384 c -3.096,0 -3.096,0 -3.096,0 l 6.12,-27.144 9.144,15.696 c 2.736,-12.24 12.24,-12.24 23.76,-21.384 6.48,5.688 6.48,5.688 6.48,5.688 -21.384,27.144 -30.24,48.6 -45.504,66.528 z"
       style="fill:#84756f;fill-rule:evenodd"
       id="path26" /></g><g
     id="g2357"
     transform="matrix(0.50298672,0,0,0.50322631,415.25357,48.770068)"
     style="stroke-width:1.98765;fill:#58536c;fill-opacity:1;stroke:none"><path
       d="m -228.50209,361.10069 c 11.736,-0.648 24.264,-3.816 33.984,-8.712 -1.008,6.696 0,12.744 1.08,18.936 -11.088,-4.176 -22.68,-7.776 -35.064,-10.224 z m 51.984,-40.68 c -19.368,13.32 -49.032,22.248 -77.328,21.6 -11.376,-0.288 -29.448,-2.808 -54.072,-3.384 26.208,-3.384 47.232,-6.48 79.848,-33.984 4.896,-4.104 8.856,-9.936 15.984,-8.136 8.856,2.16 6.624,17.496 -3.168,19.008 6.552,4.896 20.952,1.584 23.616,-9 1.872,-7.56 0,-14.472 -9.072,-18.936 14.328,2.448 22.608,-14.328 18,-23.832 -9.144,14.112 -21.456,6.696 -31.68,11.52 -11.16,5.328 -22.464,22.392 -39.456,30.168 9.72,-8.424 17.352,-21.672 21.528,-35.352 4.896,-15.768 5.76,-32.184 9.792,-40.032 5.112,-10.008 20.664,-3.384 15.48,9.144 14.688,-8.064 9.864,-35.28 -7.632,-31.032 7.488,-12.672 0.504,-29.88 -16.272,-24.984 4.68,2.592 8.424,12.312 3.312,18.648 -5.832,7.128 -7.776,12.888 -8.208,23.4 -7.488,-34.416 -38.088,-55.728 -82.296,-57.024 -6.192,-0.144 -16.56,-9.432 -15.192,-16.344 -12.312,5.112 -14.688,22.896 -0.792,28.44 -25.344,13.608 -38.52,39.816 -46.008,68.472 -3.096,11.52 -17.064,25.92 -24.912,16.704 -5.616,-6.768 2.088,-15.984 9.504,-13.608 0.72,-7.2 -7.416,-13.176 -14.472,-13.392 -7.992,-0.216 -11.88,5.472 -13.536,13.608 -6.048,-9.144 -19.728,-9.432 -23.4,0.648 6.048,-0.864 11.088,1.152 14.04,6.408 4.248,7.704 4.464,17.352 11.736,21.672 5.904,3.456 12.528,2.808 18.576,3.168 -12.24,0.72 -29.304,-3.744 -38.016,4.104 -8.352,7.776 -6.984,27.504 2.088,32.472 0.792,-19.44 11.304,-21.672 25.056,-21.384 -4.68,8.784 0.504,17.64 8.64,18.648 -2.088,-7.488 7.2,-17.28 14.472,-22.752 9.576,-7.2 21.816,-20.304 21.816,-37.152 -0.72,13.968 12.744,23.688 10.224,41.832 -0.648,4.392 -6.048,6.552 -10.944,6.192 7.848,12.384 24.696,13.464 26.712,-3.672 5.616,7.776 15.048,16.632 22.104,23.544 5.472,-0.36 13.608,-0.936 18.648,-3.384 -18.648,-20.376 -49.176,-37.872 -58.32,-68.76 7.416,27.36 36.072,36.792 55.512,25.632 21.744,-12.384 17.856,-58.824 -5.832,-66.024 -13.68,-4.104 -26.784,4.392 -41.256,8.064 -1.224,3.888 -1.8,6.408 -1.8,10.44 5.688,-1.008 14.904,-3.24 19.944,-7.776 -4.032,9.648 -1.872,21.528 10.008,23.616 -0.288,-7.92 5.976,-15.984 13.32,-12.816 9.144,3.96 7.704,20.016 0.216,28.008 -6.48,6.84 -18.864,8.712 -26.568,3.024 -23.184,-16.92 -21.744,-49.752 0.072,-67.896 21.096,-16.272 48.456,-18.432 71.496,4.176 15.48,15.12 22.68,43.632 16.344,69.408 1.368,-12.024 -2.016,-22.464 -10.224,-29.088 -8.352,-6.624 -19.512,-14.688 -18.792,-29.448 -12.6,5.688 -11.448,24.408 1.872,31.68 -9.144,-0.504 -12.384,13.968 -10.008,21.168 9.288,-6.264 19.8,-5.616 22.68,6.624 5.256,22.176 -26.064,50.76 -50.4,52.776 -49.752,4.176 -90.936,1.584 -141.264,-2.664 1.08,-27.648 0.648,-55.224 3.744,-82.8 6.84,-61.272 86.472,-99.648 136.368,-100.152 49.464,-0.504 79.2,15.192 108.432,54.072 19.152,25.272 27.36,79.128 29.736,126.576 3.168,-17.64 6.984,-72.072 16.992,-94.464 11.376,-25.488 23.184,-47.52 40.32,-67.392 9.432,-11.016 13.896,-23.544 20.376,-35.352 1.728,-3.168 0,-6.624 -2.52,-4.608 -21.528,16.92 -45.576,31.896 -74.16,32.184 -42.336,0.504 -88.488,-27.432 -142.272,-28.512 -75.528,-1.512 -122.544,49.824 -176.256,50.328 -20.952,0.072 -39.888,-8.496 -60.696,-17.064 30.6,29.88 43.92,76.968 44.28,119.592 0.936,93.816 -3.168,187.632 -3.672,281.304 -0.072,33.264 -13.032,70.848 -42.192,82.8 -3.816,1.584 6.12,6.12 10.08,3.816 19.368,-11.016 39.672,-19.872 59.976,-21.672 37.08,-3.312 56.736,15.768 79.848,15.768 6.336,0 10.008,-1.44 16.344,-4.104 2.88,-1.152 -0.432,-7.128 -2.952,-6.048 -7.272,3.168 -15.408,3.672 -22.824,0.432 -21.6,-9.648 -39.168,-43.344 -39.456,-76.464 -0.72,-59.4 0,-118.872 0.36,-178.2 66.744,2.592 136.08,2.808 200.808,7.848 27.072,2.088 56.808,3.744 77.76,16.848 -0.216,-23.472 0.072,-53.424 -0.144,-76.896 z m -276.984,-137.664 c -21.24,17.64 -27.288,47.304 -33.336,75.744 -2.664,-23.688 -9.648,-45.504 -19.44,-65.448 16.56,2.52 35.712,-2.232 52.776,-10.296 z m 240.552,-23.472 c 19.224,10.008 40.608,11.592 59.184,8.928 -9.144,13.104 -16.2,29.448 -20.376,44.784 -8.856,-19.8 -23.544,-40.824 -38.808,-53.712 z m -271.872,357.264 c 2.232,28.296 9.072,59.04 18,83.448 -9.072,-6.336 -20.232,-7.056 -31.68,-1.512 7.776,-24.048 12.456,-55.656 13.68,-81.936 z"
       style="fill:#58536c;fill-opacity:1;fill-rule:evenodd;stroke:none;stroke-width:3.43466;stroke-linecap:round;stroke-linejoin:round;stroke-dasharray:none"
       id="path6-5" /><path
       d="m -159.52609,531.95669 c 2.736,11.16 5.976,20.088 15.12,20.592 7.776,0.36 13.68,-9.72 13.968,-17.064 0.432,-7.344 -3.672,-12.888 -11.016,-12.456 -9,0.36 -9.288,12.96 -11.376,13.68 -1.8,0.576 -4.752,-1.728 -6.696,-4.752 z"
       style="fill:#58536c;fill-opacity:1;fill-rule:evenodd;stroke:none;stroke-width:3.43466;stroke-linecap:round;stroke-linejoin:round;stroke-dasharray:none"
       id="path8-9" /><path
       d="m -371.49409,223.29269 c -1.224,2.952 -2.232,5.112 -3.456,8.424 -12.456,-2.592 -30.888,-11.808 -32.616,-27.144 -1.152,-10.728 13.968,-18.648 12.816,-24.336 -0.72,-3.528 -3.168,-3.96 -7.128,-3.456 3.24,-7.056 12.24,-8.496 18.648,-4.968 7.704,4.392 6.912,17.28 -1.224,20.232 8.928,-2.808 12.168,8.496 9.648,14.256 -3.6,-6.336 -15.48,-3.528 -14.976,3.672 0.576,8.352 10.872,13.104 18.288,13.32 z"
       style="fill:#58536c;fill-opacity:1;fill-rule:evenodd;stroke:none;stroke-width:3.43466;stroke-linecap:round;stroke-linejoin:round;stroke-dasharray:none"
       id="path10-2" /><path
       d="m -308.13409,338.49269 c 5.04,-0.576 13.68,-1.656 18.504,-2.736 16.488,17.352 30.744,47.88 38.52,70.416 4.032,11.664 3.456,35.352 2.016,48.6 15.624,9.288 33.84,6.12 32.256,-6.48 -0.864,-7.344 -7.92,-10.512 -14.76,-7.416 -1.584,-6.768 1.368,-15.264 7.056,-18.36 7.2,-3.96 12.96,-1.152 16.848,8.208 -3.96,-10.008 -5.4,-19.08 -2.376,-25.488 3.96,-8.208 13.392,-11.592 20.592,-6.048 -5.04,1.152 -7.632,6.264 -7.344,9.72 1.296,13.608 7.92,26.208 4.248,41.256 -2.376,10.008 -14.472,17.064 -23.688,18.144 23.904,3.024 37.728,19.944 37.872,41.184 0.144,13.248 -13.536,28.512 -26.28,28.656 -9.072,0 -17.928,-10.152 -24.264,-10.152 -4.032,0 -6.624,3.456 -8.064,7.344 -4.824,-2.952 -5.904,-10.368 -1.872,-15.264 4.464,-5.328 9.936,-5.976 15.48,-3.672 -1.584,-4.536 0.72,-10.368 4.968,-12.96 4.536,-2.808 12.456,0.288 13.248,4.032 -5.544,2.952 -4.248,13.104 2.304,14.256 7.92,0.36 13.608,-11.088 11.52,-20.664 -2.304,-10.152 -11.232,-15.624 -20.952,-18.576 -16.632,-4.968 -36.144,-4.464 -50.544,-19.584 -16.056,-17.208 -18.864,-47.16 -21.6,-72.216 -1.8,-15.624 -12.024,-39.672 -23.688,-52.2 z"
       style="fill:#58536c;fill-opacity:1;fill-rule:evenodd;stroke:none;stroke-width:3.43466;stroke-linecap:round;stroke-linejoin:round;stroke-dasharray:none"
       id="path12-2" /><path
       d="m -421.10209,463.91669 c 0.648,4.248 1.296,8.496 1.8,11.952 -7.92,0.648 -16.56,7.272 -13.68,12.6 2.304,4.176 7.92,5.184 12.096,2.088 1.512,10.224 -10.008,19.944 -19.152,9.216 3.024,4.176 10.728,6.264 11.808,10.8 1.8,7.632 -3.528,17.784 -12.168,18.864 3.528,-3.96 3.672,-8.64 1.872,-12.672 -3.168,-7.272 -11.088,-11.016 -11.088,-24.696 0,-16.776 17.64,-25.56 28.512,-28.152 z"
       style="fill:#58536c;fill-opacity:1;fill-rule:evenodd;stroke:none;stroke-width:3.43466;stroke-linecap:round;stroke-linejoin:round;stroke-dasharray:none"
       id="path14-8" /><path
       d="m -265.07809,459.66869 c 3.168,4.32 8.496,9.072 13.608,11.592 -3.528,24.48 -23.904,50.832 -43.56,67.824 -22.464,19.368 -55.656,22.248 -82.728,34.632 -9.864,4.464 -5.256,17.064 5.472,15.768 -0.216,5.184 -4.68,11.808 -11.52,12.096 -3.96,0.216 -9.288,-3.744 -9.72,-11.448 0.504,7.344 4.392,11.808 -0.072,19.728 -4.68,8.208 -11.592,9.864 -17.568,6.912 5.472,-0.36 8.784,-3.744 8.784,-8.928 0.072,-5.832 -5.616,-8.784 -5.184,-16.344 0.216,-3.888 4.32,-5.472 6.768,-8.064 -9.144,8.64 -24.912,9.72 -35.136,4.824 -8.496,-4.104 -12.168,-16.704 -6.624,-24.552 4.248,-6.048 12.6,-6.696 15.624,-1.584 2.52,4.176 1.008,8.64 -2.376,9.72 4.464,7.56 17.568,5.256 23.616,0.216 -7.92,-1.08 -11.808,-5.76 -10.08,-15.48 1.08,-6.192 6.408,-10.296 11.376,-11.376 0.288,8.784 6.84,12.816 15.768,9.72 23.616,-8.136 43.632,-6.552 65.376,-9.72 -20.088,2.376 -37.008,4.968 -57.672,-6.48 -46.872,-25.848 -35.28,-88.2 -46.584,-97.2 -6.264,-4.968 -14.832,-3.672 -18.432,3.528 -10.584,-10.872 -0.864,-24.84 11.88,-27.072 -7.416,-5.544 -16.92,-14.832 -15.84,-25.632 0.576,-5.688 5.04,-9.072 12.384,-10.872 -2.304,3.312 -2.592,5.688 -0.288,9.648 4.824,8.496 14.688,13.68 19.44,23.688 2.088,4.536 1.584,10.008 0.576,15.192 2.88,-5.688 6.264,-11.088 9.792,-16.272 6.696,-9.288 19.08,-15.696 21.168,-27.432 0.648,-4.104 0.792,-7.416 -1.8,-11.448 11.664,1.656 16.344,10.224 13.896,20.232 11.664,-4.68 24.552,-2.376 33.192,0.936 26.136,10.008 36.792,37.44 39.888,66.816 1.368,14.184 8.928,24.624 21.384,32.904 -2.952,4.176 -6.984,8.712 -10.296,12.312 -7.128,-3.528 -15.192,-10.512 -18.72,-20.448 -2.952,16.344 -14.616,34.128 -21.528,45.576 -6.048,1.008 -11.952,1.728 -18,1.008 8.568,-16.128 22.392,-35.064 28.584,-51.48 -10.584,20.952 -27.36,14.112 -40.176,20.88 -3.816,1.944 -5.616,7.128 -2.88,11.304 -11.376,-1.944 -17.712,-15.408 -14.472,-26.712 -5.328,-4.32 -16.992,-12.168 -27.648,-12.456 -0.792,-4.32 -1.152,-8.856 -1.368,-13.104 8.928,0.792 20.736,4.176 29.664,11.016 -3.672,-2.592 -5.904,-4.176 -8.064,-8.856 -1.944,-4.176 -3.384,-15.624 -6.552,-19.008 -2.592,-2.664 -5.832,-5.184 -10.512,-4.752 4.752,-3.888 12.24,-3.888 18.648,-1.224 11.016,4.752 8.136,19.368 14.976,25.416 -7.416,-7.344 -5.328,-17.784 2.952,-23.112 7.272,-4.68 17.28,-2.664 21.024,5.112 -7.344,0.216 -13.464,6.48 -13.032,14.328 0.648,12.672 17.136,15.768 29.52,3.672 20.52,-19.872 3.168,-60.48 -32.544,-60.48 -27.072,0 -46.944,30.384 -46.152,56.16 1.584,48.744 31.32,75.456 67.824,73.368 32.976,-1.872 68.688,-39.816 73.944,-74.592 z"
       style="fill:#58536c;fill-opacity:1;fill-rule:evenodd;stroke:none;stroke-width:3.43466;stroke-linecap:round;stroke-linejoin:round;stroke-dasharray:none"
       id="path16-9" /><path
       d="m -266.44609,506.54069 c -1.944,3.168 -4.176,5.832 -6.552,8.856 -5.4,-3.528 -13.536,-2.088 -15.84,3.6 -3.24,8.28 3.168,14.688 11.88,14.544 7.056,-0.216 13.896,-7.056 15.408,-12.456 2.16,-7.704 -1.224,-11.88 -4.896,-14.544 z"
       style="fill:#58536c;fill-opacity:1;fill-rule:evenodd;stroke:none;stroke-width:3.43466;stroke-linecap:round;stroke-linejoin:round;stroke-dasharray:none"
       id="path18-7" /><path
       d="m -354.43009,546.71669 c 4.824,0.504 11.52,0.288 16.272,0 -10.8,19.8 -9.432,46.872 5.76,56.016 11.808,7.056 32.4,2.376 34.632,-11.52 1.656,-11.016 -12.096,-14.472 -15.48,-7.2 -4.608,-4.464 -0.792,-12.816 5.76,-15.984 5.688,-2.808 13.536,-0.72 15.12,5.04 2.232,-6.912 -3.528,-12.816 4.896,-18.504 5.112,-3.528 11.664,-3.888 14.976,1.944 -3.672,0.216 -7.632,1.584 -7.128,5.544 0.792,7.272 4.824,14.4 3.024,21.96 -1.584,6.336 -4.464,12.168 -9.072,14.616 8.064,-0.144 14.616,-6.048 20.376,-11.448 8.568,-8.064 16.056,-16.056 31.032,-16.488 13.32,-0.36 31.032,6.12 31.608,22.32 0.432,10.512 -10.944,22.176 -25.56,22.464 10.944,-4.248 16.776,-19.512 9.216,-25.416 -14.184,-11.16 -27.216,3.024 -37.944,10.584 -8.424,5.976 -20.448,9.288 -29.952,11.376 16.128,-3.456 19.8,-8.136 27.072,-2.16 4.824,3.96 6.912,14.976 1.656,22.176 -2.664,-8.712 -10.512,-12.96 -20.808,-12.96 -19.728,-0.072 -42.192,11.664 -59.472,0 -20.088,-13.464 -27,-44.64 -15.984,-72.36 z"
       style="fill:#58536c;fill-opacity:1;fill-rule:evenodd;stroke:none;stroke-width:3.43466;stroke-linecap:round;stroke-linejoin:round;stroke-dasharray:none"
       id="path20-3" /><path
       d="m -265.79809,427.12469 c 0.36,11.592 8.784,22.68 16.848,27.504"
       style="fill:#58536c;stroke:none;stroke-width:3.43466;stroke-linecap:round;stroke-linejoin:round;stroke-dasharray:none;fill-opacity:1"
       id="path23" /><path
       d="m -484.67809,351.09269 c 32.112,-0.792 63.792,-0.36 95.544,0.432 31.32,1.152 61.776,3.168 92.736,4.752"
       style="fill:#58536c;stroke:none;stroke-width:0.858664;stroke-linecap:round;stroke-linejoin:round;stroke-dasharray:none;fill-opacity:1"
       id="path25" /><path
       d="m -334.41409,338.49269 c 8.712,0 17.64,-0.144 26.424,-0.072"
       style="fill:#58536c;stroke:none;stroke-width:3.43466;stroke-linecap:round;stroke-linejoin:round;stroke-dasharray:none;fill-opacity:1"
       id="path27" /><path
       d="m -486.83809,258.42869 c 4.392,85.176 2.016,172.656 2.088,257.688"
       style="fill:#58536c;stroke:none;stroke-width:3.43466;stroke-linecap:round;stroke-linejoin:round;stroke-dasharray:none;fill-opacity:1"
       id="path29" /><path
       d="m -273.79009,357.86069 c 14.688,0.792 29.736,2.016 44.424,2.808"
       style="fill:#58536c;stroke:none;stroke-width:0.858664;stroke-linecap:round;stroke-linejoin:round;stroke-dasharray:none;fill-opacity:1"
       id="path31" /><path
       d="m -176.66209,396.95669 c 1.728,45.432 9.288,93.096 16.848,134.712"
       style="fill:#58536c;stroke:none;stroke-width:3.43466;stroke-linecap:round;stroke-linejoin:round;stroke-dasharray:none;fill-opacity:1"
       id="path33" /><path
       d="m -377.97409,488.32469 c 5.976,4.752 27.504,6.84 37.224,0.648"
       style="fill:#58536c;fill-opacity:1;stroke:none;stroke-width:3.43466;stroke-linecap:round;stroke-linejoin:round;stroke-dasharray:none"
       id="path35" /><path
       d="m -405.76609,571.84469 c 6.192,-5.76 17.64,-11.16 27.072,-13.104"
       style="fill:#58536c;stroke:none;stroke-width:3.43466;stroke-linecap:round;stroke-linejoin:round;stroke-dasharray:none;fill-opacity:1"
       id="path37" /><path
       d="m -413.75809,298.96469 c 9.792,-1.008 24.768,-7.272 33.048,-13.32"
       style="fill:#58536c;stroke:none;stroke-width:3.43466;stroke-linecap:round;stroke-linejoin:round;stroke-dasharray:none;fill-opacity:1"
       id="path39" /></g></svg>
