<?xml version="1.0" encoding="UTF-8" standalone="no"?>
<svg
   version="1.1"
   width="6.9932208in"
   height="6.651in"
   viewBox="0 0 503.51189 478.87201"
   id="svg9"
   sodipodi:docname="fitzland-net-logo.svg"
   xml:space="preserve"
   inkscape:version="1.2.2 (b0a8486541, 2022-12-01)"
   xmlns:inkscape="http://www.inkscape.org/namespaces/inkscape"
   xmlns:sodipodi="http://sodipodi.sourceforge.net/DTD/sodipodi-0.dtd"
   xmlns="http://www.w3.org/2000/svg"
   xmlns:svg="http://www.w3.org/2000/svg"><defs
     id="defs13" /><sodipodi:namedview
     id="namedview11"
     pagecolor="#ffffff"
     bordercolor="#666666"
     borderopacity="1.0"
     inkscape:showpageshadow="2"
     inkscape:pageopacity="0.0"
     inkscape:pagecheckerboard="0"
     inkscape:deskcolor="#d1d1d1"
     inkscape:document-units="in"
     showgrid="false"
     inkscape:zoom="0.57318504"
     inkscape:cx="139.57098"
     inkscape:cy="423.07455"
     inkscape:window-width="1920"
     inkscape:window-height="1050"
     inkscape:window-x="0"
     inkscape:window-y="30"
     inkscape:window-maximized="1"
     inkscape:current-layer="svg9" /><g
     id="Layer1000-9"
     transform="translate(-47.866408,-160.92)"><path
       d="m 286.344,639.792 -20.592,-3.456 -141.84,-2.664 C 105.984,636.336 87.984,627.552 70.056,606.888 42.912,543.456 57.816,480.024 51.696,419.976 v -21.384 c 0,-72.144 -18,-140.976 24.048,-213.192 63.072,-33.696 123.48,-9.216 183.528,-24.48 h 45.072 l 33.552,3.024 108.216,3.456 c 30.168,0 57.312,-3.456 87.12,14.904 36.288,138.384 6.48,270.576 9.144,406.296 l -27.072,38.952 c -56.952,6.12 -114.336,6.12 -171.648,6.12 h -14.904 l -35.856,6.12 z"
       style="fill:#84756f;fill-rule:evenodd"
       id="path2-1" /><path
       d="m 289.8,618.408 h -12.24 c 6.12,-29.808 6.12,-56.592 6.12,-87.192 -3.024,-6.12 -3.024,-6.12 -3.024,-6.12 C 220.608,515.952 127.368,441 141.912,374.976 151.056,338.688 181.224,297 214.128,278.64 c 18.36,-6.12 33.624,-12.24 48.528,-12.24 3.096,-5.688 3.096,-5.688 3.096,-5.688 l 2.664,-84.528 33.264,2.664 v 78.768 c 51.12,5.76 119.952,48.168 129.096,108.216 15.336,45 3.096,84.384 -38.592,126.432 -27.144,14.904 -51.624,21.024 -75.672,21.024 l -3.096,72.216 -2.664,36.36 H 295.56 Z"
       style="fill:#9edbf4;fill-rule:evenodd"
       id="path4-2" /><path
       d="m 181.224,615.744 -72.216,-6.12 C 45.936,504.504 91.08,383.76 70.056,272.52 l 23.688,-69.192 17.928,-9.144 c 45.864,-6.12 91.008,-6.12 136.08,-3.096 l 8.784,32.904 -3.024,27.504 c -66.168,0 -141.84,84.096 -129.6,144.504 l 3.456,17.856 c 14.544,51.264 84.096,111.24 131.904,129.6 v 72.288 h -71.928 z"
       style="fill:#d6ead7;fill-rule:evenodd"
       id="path6-7" /><path
       d="m 328.752,609.624 2.664,-78.408 c 69.552,0 141.84,-87.48 126.936,-147.456 L 425.088,308.448 C 397.944,269.856 355.896,254.16 322.632,248.472 l -2.664,-54.288 c 65.736,-3.096 135.288,-15.336 201.816,6.12 2.304,5.688 2.304,5.688 2.304,5.688 15.624,39.384 3.384,75.312 6.48,111.672 l -6.48,114.552 v 18 23.688 c 3.384,42.048 6.48,81.432 -14.544,123.84 -24.12,14.904 -39.384,9.144 -60.768,11.88 h -23.688 -39.384 -50.832 z"
       style="fill:#d6ead7;fill-rule:evenodd"
       id="path8-0" /><path
       d="m 190.44,558.36 -14.904,-12.24 c 0,-5.688 -3.096,-14.904 5.688,-11.448 l -12.168,-9.576 3.384,-20.592 60.048,45.072 c 0,5.76 0,5.76 0,5.76 l -42.048,-14.904 5.76,17.928 z"
       style="fill:#84756f;fill-rule:evenodd"
       id="path10-9" /><path
       d="m 394.776,537.696 c 0,0 0,0 0,0 l 2.376,-11.952 9.576,-2.088 44.784,-44.784 c 11.664,6.84 4.464,16.416 0,25.632 l -30.744,28.728 -9.288,4.464 -11.592,2.376 z"
       style="fill:#84756f;fill-rule:evenodd"
       id="path12-3" /><path
       d="m 438.552,537.336 -2.448,-12.024 12.312,-5.256 c 2.16,-4.608 2.16,-4.608 2.16,-4.608 C 458.28,513 458.28,513 458.28,513 l -2.448,16.92 -12.312,7.416 z"
       style="fill:#84756f;fill-rule:evenodd"
       id="path14-6" /><path
       d="m 319.968,501.048 -18.288,-3.096 -3.096,-210.168 c 3.096,-6.48 3.096,-6.48 3.096,-6.48 6.048,-2.664 6.048,-2.664 6.048,-2.664 35.928,14.904 59.976,54.288 72.216,81.432 14.904,47.736 8.784,90.144 -32.832,135.216 l -21.456,9.216 z"
       style="fill:#84756f;fill-rule:evenodd"
       id="path16-0" /><path
       d="m 259.272,495.288 -45.144,-27.144 c -29.448,-60.336 -32.904,-120.312 21.384,-180.36 5.76,-3.024 5.76,-3.024 5.76,-3.024 l 36.288,-6.12 3.096,150.192 3.024,59.976 -17.928,9.144 z"
       style="fill:#84756f;fill-rule:evenodd"
       id="path18" /><path
       d="m 319.968,483.048 v -168.12 l 29.376,27.144 6.552,18 c 17.928,38.52 14.904,87.048 -27.144,119.952 z"
       style="fill:#d6ead7;fill-rule:evenodd"
       id="path20" /><path
       d="m 259.272,477.36 c 0,0 0,0 0,0 l -26.784,-18 -14.904,-33.624 c -12.24,-38.52 -9.216,-80.928 26.712,-119.952 l 14.976,-8.784 6.48,183.024 z"
       style="fill:#d6ead7;fill-rule:evenodd"
       id="path22" /><path
       d="m 452.232,353.592 -3.456,-23.76 -8.784,-14.904 -36.36,-39.312 c 0,-3.096 0,-3.096 0,-3.096 l 42.48,15.264 c 0,-3.024 0,-3.024 0,-3.024 l 17.928,-6.12 9.216,18.36 -3.096,17.928 -21.384,-24.408 c 3.456,17.928 18.72,33.264 18.72,51.552 l -9.144,11.52 z"
       style="fill:#84756f;fill-rule:evenodd"
       id="path24" /><path
       d="m 120.888,320.688 c 0,0 0,0 0,0 l 12.24,-39.384 c -3.096,0 -3.096,0 -3.096,0 l 6.12,-27.144 9.144,15.696 c 2.736,-12.24 12.24,-12.24 23.76,-21.384 6.48,5.688 6.48,5.688 6.48,5.688 -21.384,27.144 -30.24,48.6 -45.504,66.528 z"
       style="fill:#84756f;fill-rule:evenodd"
       id="path26" /></g></svg>
